<svg xmlns="http://www.w3.org/2000/svg" width="47" height="47" viewBox="0 0 47 47">
    <defs>
        <linearGradient id="65oeoo6yda" x1="159.45%" x2="35.177%" y1="-201.1%" y2="100%">
            <stop offset="0%" stop-color="#12C2EA"/>
            <stop offset="100%" stop-color="#7C00FA"/>
        </linearGradient>
    </defs>
    <g fill="none" fill-rule="evenodd">
        <g>
            <g>
                <path fill="url(#65oeoo6yda)" d="M23.5 47C36.479 47 47 36.479 47 23.5S36.479 0 23.5 0 0 10.521 0 23.5 10.521 47 23.5 47z" transform="translate(-1302.000000, -1366.000000) translate(1302.000000, 1366.000000)"/>
                <g fill="#FFF" fill-rule="nonzero">
                    <path d="M20.76 4.43l-.001-.002L16.472.235c-.32-.314-.84-.313-1.16.003-.32.315-.318.826.003 1.14l2.878 2.816H.82c-.453 0-.82.36-.82.806 0 .445.367.806.82.806h17.373l-2.878 2.816c-.321.314-.322.825-.003 1.14.32.316.84.317 1.16.003l4.287-4.193V5.57c.322-.315.32-.828 0-1.142z" transform="translate(-1302.000000, -1366.000000) translate(1302.000000, 1366.000000) translate(13.000000, 19.000000)"/>
                </g>
            </g>
        </g>
    </g>
</svg>
