<svg xmlns="http://www.w3.org/2000/svg" width="25" height="27" viewBox="0 0 25 27">
    <g fill="none" fill-rule="evenodd">
        <g fill="#FFF">
            <g>
                <g>
                    <g>
                        <path d="M2.929 0C1.314 0 0 1.242 0 2.781v18.252c0 1.539 1.314 2.781 2.929 2.781h16.2l-.758-2.498 1.829 1.607 1.729 1.512L25 27V2.781C25 1.242 23.686 0 22.071 0H2.93zm12.685 16.537c1.248-.333 2.11-.868 2.586-1.606-.586.365-1.143.621-1.643.796-.714.284-1.4.473-2.071.581-1.372.243-2.629.175-3.7-.014-.815-.148-1.515-.364-2.1-.58-.329-.122-.686-.27-1.043-.459-.043-.027-.086-.04-.129-.068-.028-.013-.043-.027-.057-.04-.171-.09-.305-.167-.4-.23.457.72 1.29 1.251 2.5 1.593-.286.342-.605.716-.957 1.121-2.105-.063-3.557-.747-4.357-2.052 0-2.898.686-5.522 2.057-7.87 1.371-.973 2.71-1.445 4.014-1.418l.143.162L6.7 8.221c.21-.108.49-.238.843-.391 1.528-.635 2.743-.81 3.243-.85.085-.014.157-.028.243-.028.871-.108 1.857-.135 2.885-.027 1.357.149 2.815.527 4.3 1.296-.752-.675-1.938-1.246-3.557-1.714l.2-.216c1.305-.027 2.643.445 4.014 1.417 1.372 2.35 2.058 4.973 2.058 7.871-.81 1.305-2.267 1.989-4.372 2.052-.343-.387-.657-.752-.943-1.094zm-7.157-3.712c0 .823.657 1.498 1.457 1.498.815 0 1.457-.675 1.457-1.498.015-.824-.642-1.499-1.457-1.499-.814 0-1.457.675-1.457 1.499zm5.214 0c0 .823.658 1.498 1.458 1.498.814 0 1.457-.675 1.457-1.498 0-.824-.643-1.499-1.457-1.499-.815 0-1.458.675-1.458 1.499z" transform="translate(-1303.000000, -3854.000000) translate(-36.000000, 3755.000000) translate(1206.000000, 99.000000) translate(133.000000, 0.000000)"/>
                    </g>
                </g>
            </g>
        </g>
    </g>
</svg>
