<svg xmlns="http://www.w3.org/2000/svg" width="29" height="26" viewBox="0 0 29 26">
    <g fill="none" fill-rule="evenodd">
        <g fill="#FFF" fill-rule="nonzero">
            <g>
                <g>
                    <path d="M1 9H6V26H1zM22.276 9c-3.065 0-4.969 1.645-5.326 2.801V9.12H11V25.97h5.95v-9.115c-.045-.463 0-.932.134-1.378.434-1.217 1.59-2.03 2.886-2.03 2.083 0 2.975 1.556 2.975 3.838V26H29v-9.397C29.044 11.386 26.069 9 22.276 9zM3.399.014C1.689-.141.169 1.054.006 2.686c-.008.1-.008.198 0 .297 0 1.64 1.394 2.97 3.113 2.97h.218c1.098.188 2.217-.198 2.934-1.013.717-.815.923-1.934.538-2.933C6.425 1.008 5.51.282 4.411.103c-.374-.06-1.012-.09-1.012-.09z" transform="translate(-1165.000000, -3852.000000) translate(-36.000000, 3755.000000) translate(1201.000000, 97.000000)"/>
                </g>
            </g>
        </g>
    </g>
</svg>
