<svg xmlns="http://www.w3.org/2000/svg" width="216" height="33" viewBox="0 0 216 33">
    <g fill="none" fill-rule="evenodd">
        <g>
            <g>
                <path fill="#7C00FA" fill-rule="nonzero" d="M49.909 3.123C47.932 1.127 45.249.004 42.452 0h-10.91c-.141-.003-.28.033-.403.104-.123.072-.223.176-.291.3L26.805 7.47 17.067 24.52h-6.48c-.562 0-1.1-.225-1.499-.624-.397-.4-.622-.942-.624-1.509-.004-.46.143-.908.417-1.276l3.025-4.108c.105-.137.163-.305.163-.479 0-.173-.058-.341-.163-.478L8.88 11.929c-.273-.366-.42-.811-.417-1.269 0-.567.224-1.111.622-1.513.398-.401.937-.626 1.5-.626h6.497l3.534 6.17 4.86-8.513L22.184.42c-.067-.124-.167-.227-.288-.298-.12-.071-.259-.108-.399-.106h-10.94C7.756.02 5.074 1.143 3.095 3.138 1.117 5.133.004 7.838 0 10.66c1.138 1.74 1.744 3.78 1.744 5.863 0 2.085-.606 4.123-1.744 5.863.01 2.818 1.127 5.516 3.105 7.505 1.978 1.99 4.657 3.107 7.45 3.109h10.91c.14.002.278-.035.4-.106.12-.072.22-.175.287-.299l4.352-7.594L35.94 8.48h6.512c.393.001.777.112 1.11.32.334.207.604.504.781.857.177.353.253.748.22 1.142-.033.394-.173.771-.405 1.09l-3.033 4.116c-.105.137-.163.305-.163.479 0 .173.058.341.163.478l3.033 4.116c.272.366.418.811.416 1.269-.002.566-.226 1.108-.624 1.508-.398.4-.936.624-1.498.624h-6.504l-3.526-6.163-4.861 8.512 3.287 5.75c.068.126.168.23.29.301.123.072.263.108.404.104h10.91c2.797-.002 5.479-1.123 7.456-3.117 1.978-1.995 3.09-4.699 3.092-7.52-1.138-1.74-1.744-3.778-1.744-5.862 0-2.085.606-4.123 1.744-5.864v.024c-.002-2.821-1.114-5.526-3.091-7.522z" transform="translate(-128.000000, -43.000000) translate(128.000000, 43.000000)"/>
                <path fill="#E7E7E7" d="M76.551 8.014c.795-.055 1.593.05 2.347.309.754.258 1.45.665 2.05 1.196.37.365.66.804.854 1.288.194.485.287 1.004.272 1.527v.049c.01.8-.213 1.586-.642 2.26-.43.672-1.047 1.202-1.773 1.522C81.631 16.85 83 17.988 83 20.29v.049C83 23.373 80.52 25 76.777 25H69l.016-16.986h7.535zm2.569 4.848c0-1.342-1.055-2.163-2.947-2.163h-4.25v4.515l4.033-.041c1.892 0 3.164-.757 3.164-2.31zm.917 7.16v-.041c0-1.432-1.127-2.286-3.461-2.286h-4.678v4.653l4.92.008c2.02 0 3.22-.813 3.22-2.335z" transform="translate(-128.000000, -43.000000) translate(128.000000, 43.000000)"/>
                <path fill="#E7E7E7" fill-rule="nonzero" d="M89.752 8v14.28H98V25H87V8h2.752z" transform="translate(-128.000000, -43.000000) translate(128.000000, 43.000000)"/>
                <path fill="#E7E7E7" d="M100 16.5c.06-2.271.98-4.43 2.562-6.016 1.583-1.587 3.704-2.478 5.915-2.484 2.211-.006 4.338.873 5.929 2.45 1.59 1.578 2.521 3.731 2.594 6.002v.048c-.06 2.271-.98 4.43-2.562 6.016-1.583 1.587-3.704 2.478-5.915 2.484-2.211.006-4.338-.873-5.929-2.45-1.59-1.578-2.521-3.731-2.594-6.002V16.5zm14.017 0c.03-.767-.091-1.532-.356-2.25-.264-.717-.666-1.373-1.182-1.928-.516-.554-1.135-.997-1.82-1.3-.686-.304-1.424-.463-2.17-.468-.74.005-1.47.164-2.147.466-.678.303-1.29.742-1.799 1.293-.509.55-.904 1.2-1.163 1.912-.259.71-.375 1.468-.343 2.227v.048c-.028.766.094 1.53.358 2.248.265.717.667 1.373 1.183 1.927.515.555 1.134.997 1.82 1.301.684.305 1.422.464 2.168.47.738-.007 1.467-.166 2.143-.469.677-.303 1.287-.742 1.794-1.293.508-.55.902-1.2 1.16-1.911.257-.71.372-1.467.339-2.225h.015V16.5z" transform="translate(-128.000000, -43.000000) translate(128.000000, 43.000000)"/>
                <path fill="#E7E7E7" fill-rule="nonzero" d="M120.002 16.5c-.025-1.12.175-2.234.591-3.275.416-1.04 1.037-1.986 1.828-2.78.79-.793 1.732-1.419 2.77-1.838 1.038-.42 2.15-.623 3.268-.6 1.188-.046 2.373.158 3.477.599 1.105.44 2.106 1.106 2.938 1.956l-1.853 2.14c-.592-.627-1.301-1.131-2.088-1.482-.787-.351-1.636-.542-2.497-.563-3.141 0-5.41 2.58-5.41 5.797v.047c0 3.217 2.269 5.844 5.41 5.844 2.01 0 3.297-.787 4.71-2.14l1.854 1.88c-.823.95-1.847 1.704-2.998 2.207-1.15.504-2.398.744-3.653.704-1.107.014-2.206-.196-3.23-.617-1.025-.42-1.955-1.043-2.734-1.832-.779-.788-1.392-1.726-1.801-2.756-.41-1.031-.607-2.134-.582-3.243v-.047zM140.976 8v8.54l8.06-8.54h3.648l-7.038 7.32L153 25h-3.6l-5.781-7.646-2.643 2.717V25H138V8h2.976z" transform="translate(-128.000000, -43.000000) translate(128.000000, 43.000000)"/>
                <path fill="#E7E7E7" d="M163.012 8.013c.738-.053 1.478.053 2.178.311s1.348.664 1.904 1.194c.342.367.611.805.791 1.29.18.484.267 1.003.255 1.525v.05c.01.8-.197 1.586-.596 2.259-.4.673-.972 1.203-1.646 1.523 1.831.683 3.102 1.822 3.102 4.125v.048c0 3.035-2.295 4.662-5.771 4.662H156l.007-16.987h7.005zm2.385 4.849c0-1.342-.98-2.164-2.744-2.164h-3.947v4.515l3.745-.04c1.765 0 2.946-.757 2.946-2.311zm.874 7.151v-.04c0-1.433-1.046-2.287-3.207-2.287h-4.35v4.662h4.567c1.877 0 2.99-.814 2.99-2.335z" transform="translate(-128.000000, -43.000000) translate(128.000000, 43.000000)"/>
                <path fill="#E7E7E7" fill-rule="nonzero" d="M184.862 8v2.668h-9.052v4.417h8.018v2.668h-8.018v4.579H185V25h-12V8h11.862zM188 10.768V8h13v2.768h-5.08V25h-2.84V10.768H188zM204.768 20.275c1.422 1.36 3.32 2.131 5.302 2.153 1.816 0 2.973-.791 2.973-2.081v-.048c0-1.179-.675-1.812-3.792-2.524-3.567-.847-5.584-1.892-5.584-4.93v-.048c0-2.833 2.41-4.795 5.729-4.795 2.216-.042 4.376.696 6.09 2.08l-1.607 2.193c-1.29-1.042-2.89-1.64-4.556-1.701-1.727 0-2.731.878-2.731 1.962v.048c0 1.274.803 1.836 4.017 2.595 3.551.847 5.391 2.097 5.391 4.835v.048c0 3.094-2.467 4.938-5.986 4.938-2.591.016-5.095-.928-7.014-2.643l1.768-2.082z" transform="translate(-128.000000, -43.000000) translate(128.000000, 43.000000)"/>
            </g>
        </g>
    </g>
</svg>
