<?xml version="1.0" encoding="utf-8"?>
<!-- Generator: Adobe Illustrator 26.0.1, SVG Export Plug-In . SVG Version: 6.00 Build 0)  -->
<svg version="1.1" id="Capa_1" xmlns="http://www.w3.org/2000/svg" xmlns:xlink="http://www.w3.org/1999/xlink" x="0px" y="0px"
	 viewBox="0 0 147.9 33" style="enable-background:new 0 0 147.9 33;" xml:space="preserve">
<style type="text/css">
	.st0{fill:#E7E7E7;}
	.st1{fill:#7C00FA;}
</style>
<g>
	<path class="st0" d="M69,8h7.6C78.5,8,80,8.6,81,9.5c0.8,0.8,1.1,1.7,1.1,2.8l0,0c0,2-1.2,3.1-2.4,3.8c2,0.7,3.4,1.8,3.4,4.1l0,0
		c0,3-2.5,4.6-6.3,4.6H69V8z M79.1,12.8c0-1.3-1.1-2.2-3-2.2h-4.3v4.5h4.1C77.9,15.2,79.1,14.4,79.1,12.8L79.1,12.8z M76.6,17.7
		h-4.7v4.6h4.9c2,0,3.3-0.8,3.3-2.3l0,0C80.1,18.5,79,17.7,76.6,17.7z"/>
	<path class="st0" d="M86.4,8h3v14.2h8.9V25H86.4V8z"/>
	<path class="st0" d="M107.4,7.9h2.8l7.5,17.1h-3.1l-1.7-4.1h-8L103,25h-3L107.4,7.9z M111.7,18.2l-2.9-6.8l-2.9,6.8H111.7z"/>
	<path class="st0" d="M119.1,22.5l1.8-2.1c1.6,1.4,3.3,2.2,5.4,2.2c1.8,0,3-0.9,3-2.1l0,0c0-1.2-0.7-1.9-3.8-2.6
		c-3.6-0.9-5.6-1.9-5.6-5.1l0,0c0-2.9,2.4-4.9,5.8-4.9c2.5,0,4.4,0.8,6.2,2.1l-1.6,2.3c-1.5-1.1-3.1-1.7-4.6-1.7
		c-1.7,0-2.8,0.9-2.8,2l0,0c0,1.3,0.8,1.9,4,2.7c3.6,0.9,5.4,2.2,5.4,5l0,0c0,3.2-2.5,5.1-6.1,5.1C123.6,25.2,121.2,24.3,119.1,22.5
		z"/>
	<path class="st0" d="M139.6,10.8h-5.4V8H148v2.8h-5.4V25h-3L139.6,10.8L139.6,10.8z"/>
</g>
<g>
	<path class="st1" d="M53.4,10.6C53.4,4.8,48.7,0,42.8,0h-11c-0.3,0-0.6,0.2-0.7,0.4L27,7.5l-9.8,17l0,0h-6.5c-1.2,0-2.1-1-2.1-2.1
		c0-0.6,0.2-1,0.4-1.3L12,17c0.2-0.3,0.2-0.7,0-1l-3.1-4.1c-0.2-0.3-0.4-0.7-0.4-1.3c0-1.2,1-2.1,2.1-2.1h6.6l3.6,6.2l4.9-8.5
		l-3.3-5.8C22.2,0.2,21.9,0,21.6,0h-11C4.8,0,0,4.8,0,10.6c0,2.1,0.6,4.1,1.8,5.9C0.6,18.2,0,20.3,0,22.4C0,28.2,4.8,33,10.6,33h11
		c0.3,0,0.6-0.2,0.7-0.4l4.4-7.6l0,0l9.5-16.5l0,0h6.5c1.2,0,2.1,1,2.1,2.1c0,0.6-0.2,1-0.4,1.3L41.5,16c-0.2,0.3-0.2,0.7,0,1
		l3.1,4.1c0.2,0.3,0.4,0.7,0.4,1.3c0,1.2-1,2.1-2.1,2.1h-6.6l-3.6-6.2l-4.9,8.5l3.3,5.8c0.1,0.2,0.4,0.4,0.7,0.4h11
		c5.9,0,10.6-4.8,10.6-10.6c0-2.1-0.6-4.1-1.8-5.9C52.8,14.8,53.4,12.7,53.4,10.6z"/>
</g>
</svg>
