<svg xmlns="http://www.w3.org/2000/svg" width="27" height="23" viewBox="0 0 27 23">
    <g fill="none" fill-rule="evenodd">
        <g fill="#FFF">
            <g>
                <g>
                    <g>
                        <path d="M6.68 13.3l2.42 7.603c.106.514.737.617 1.158.308l3.472-2.774c.316-.308.842-.308 1.262 0l6.208 4.418c.42.308 1.052.103 1.157-.41L26.987.867c.105-.513-.421-1.027-.947-.822L.473 9.704c-.63.206-.63 1.13 0 1.336l6.208 2.26zm14.31-8.425c.21-.102.42.206.21.309l-9.995 9.144c-.316.308-.631.719-.631 1.232l-.316 2.466c0 .309-.526.411-.631 0l-1.263-4.52c-.315-.514-.105-1.13.421-1.336L20.99 4.875z" transform="translate(-1170.000000, -3855.000000) translate(-36.000000, 3755.000000) translate(1206.000000, 99.000000) translate(0.000000, 1.000000)"/>
                    </g>
                </g>
            </g>
        </g>
    </g>
</svg>
