<svg xmlns="http://www.w3.org/2000/svg" width="27" height="21" viewBox="0 0 27 21">
    <g fill="none" fill-rule="evenodd">
        <g fill="#FFF" fill-rule="nonzero">
            <g>
                <g>
                    <g>
                        <path d="M23.832 3.365c1.102-.673 2.066-1.75 2.48-2.961-1.103.673-2.205 1.077-3.582 1.346C21.765.673 20.25 0 18.735 0c-3.03 0-5.51 2.423-5.51 5.385 0 .403 0 .807.137 1.211C8.816 6.326 4.684 4.173 1.93.942c-.414.808-.69 1.75-.69 2.693 0 1.884.965 3.5 2.48 4.442-.964 0-1.79-.27-2.48-.673 0 2.558 1.93 4.846 4.409 5.25-.413.134-.964.134-1.515.134-.414 0-.69 0-1.102-.134.688 2.154 2.755 3.77 5.234 3.77-1.928 1.48-4.27 2.288-6.887 2.288-.414 0-.827 0-1.378-.135C2.48 20.057 5.372 21 8.54 21c10.195 0 15.705-8.212 15.705-15.346V4.98C25.347 4.577 26.31 3.635 27 2.558c-.964.404-2.066.673-3.168.807z" transform="translate(-1238.000000, -3856.000000) translate(-36.000000, 3755.000000) translate(1206.000000, 99.000000) translate(68.000000, 2.000000)"/>
                    </g>
                </g>
            </g>
        </g>
    </g>
</svg>
