<?xml version="1.0" encoding="utf-8"?>
<!-- Generator: Adobe Illustrator 23.0.4, SVG Export Plug-In . SVG Version: 6.00 Build 0)  -->
<svg version="1.1" id="Capa_1" xmlns="http://www.w3.org/2000/svg" xmlns:xlink="http://www.w3.org/1999/xlink" x="0px" y="0px"
	 viewBox="0 0 501 309.73" style="enable-background:new 0 0 501 309.73;" xml:space="preserve">
<style type="text/css">
	.st0{fill:none;stroke:#FFFFFF;stroke-miterlimit:10;}
</style>
<path class="st0" d="M500.5,100.03c0-54.87-44.66-99.53-99.53-99.53H298.06c-2.72,0-5.14,1.47-6.54,3.75l-38.2,66.11l-91.89,159.47
	l-0.29-0.15H99.96c-11.02,0-19.98-8.96-19.98-19.98c0-5.44,2.13-9.48,3.89-11.9l28.57-38.49c1.98-2.64,1.98-6.32,0-8.96
	l-28.57-38.49c-1.76-2.42-3.89-6.39-3.89-11.9c0-11.02,8.96-19.98,19.98-19.98h61.33l33.27,57.66l45.91-79.62L209.4,4.17
	c-1.25-2.2-3.75-3.67-6.46-3.67H100.03C45.16,0.5,0.5,45.16,0.5,100.03c0,19.69,5.66,38.56,16.45,54.8
	C6.16,171.13,0.5,190.01,0.5,209.7c0,54.87,44.66,99.53,99.53,99.53h102.91c2.72,0,5.14-1.47,6.54-3.75l41.06-71.03l0,0L339.56,79.9
	l0.22,0.07h61.19c11.02,0,19.98,8.96,19.98,19.98c0,5.44-2.13,9.48-3.89,11.9l-28.57,38.49c-1.98,2.64-1.98,6.32,0,8.96l28.57,38.49
	c1.76,2.42,3.89,6.39,3.89,11.9c0,11.02-8.96,19.98-19.98,19.98h-61.33l-33.27-57.66l-45.91,79.62l31.07,53.84
	c1.32,2.35,3.82,3.75,6.54,3.75h102.91c54.87,0,99.53-44.66,99.53-99.53c0-19.69-5.66-38.56-16.45-54.8
	C494.84,138.59,500.5,119.79,500.5,100.03z"/>
</svg>
