<?xml version="1.0" encoding="utf-8"?>
<!-- Generator: Adobe Illustrator 23.0.4, SVG Export Plug-In . SVG Version: 6.00 Build 0)  -->
<svg version="1.1" id="Capa_1" xmlns="http://www.w3.org/2000/svg" xmlns:xlink="http://www.w3.org/1999/xlink" x="0px" y="0px"
	 viewBox="0 0 500 75.72" style="enable-background:new 0 0 500 75.72;" xml:space="preserve">
<style type="text/css">
	.st0{fill:#FFFFFF;}
</style>
<path class="st0" d="M122.64,24.41C122.64,10.95,111.69,0,98.23,0H72.99c-0.67,0-1.26,0.36-1.6,0.92l-9.37,16.22L39.47,56.25
	l-0.07-0.04H24.39c-2.7,0-4.9-2.2-4.9-4.9c0-1.33,0.52-2.32,0.95-2.92l7.01-9.44c0.49-0.65,0.49-1.55,0-2.2l-7.01-9.44
	c-0.43-0.59-0.95-1.57-0.95-2.92c0-2.7,2.2-4.9,4.9-4.9h15.04l8.16,14.14l11.26-19.53L51.24,0.9C50.93,0.36,50.32,0,49.65,0H24.41
	C10.95,0,0,10.95,0,24.41c0,4.83,1.39,9.46,4.04,13.44C1.39,41.85,0,46.48,0,51.31c0,13.46,10.95,24.41,24.41,24.41h25.24
	c0.67,0,1.26-0.36,1.6-0.92l10.07-17.42l0,0l21.84-37.91l0.05,0.02h15.01c2.7,0,4.9,2.2,4.9,4.9c0,1.33-0.52,2.32-0.95,2.92
	l-7.01,9.44c-0.49,0.65-0.49,1.55,0,2.2l7.01,9.44c0.43,0.59,0.95,1.57,0.95,2.92c0,2.7-2.2,4.9-4.9,4.9H83.18l-8.16-14.14
	L63.76,61.6l7.62,13.21c0.32,0.58,0.94,0.92,1.6,0.92h25.24c13.46,0,24.41-10.95,24.41-24.41c0-4.83-1.39-9.46-4.04-13.44
	C121.25,33.87,122.64,29.26,122.64,24.41z"/>
<path class="st0" d="M160.06,19.26h16.72c4.25,0,7.62,1.17,9.75,3.3c1.66,1.66,2.5,3.68,2.5,6.18v0.11c0,4.47-2.56,6.86-5.33,8.31
	c4.36,1.5,7.4,4,7.4,9.06v0.11c0,6.65-5.48,10.23-13.8,10.23h-17.26V19.26H160.06z M175.46,34.97c4.22,0,7.03-1.66,7.03-5.06V29.8
	c0-2.94-2.34-4.74-6.56-4.74h-9.42v9.91H175.46z M177.37,50.74c4.47,0,7.19-1.77,7.19-5.12v-0.11c0-3.13-2.5-5.01-7.68-5.01h-10.38
	v10.23H177.37z"/>
<path class="st0" d="M198.92,19.26h6.56v31.31h19.6v5.96h-26.14V19.26H198.92z"/>
<path class="st0" d="M230.47,38v-0.11c0-10.49,8.09-19.28,19.55-19.28c11.46,0,19.44,8.68,19.44,19.17v0.11
	c0,10.49-8.09,19.28-19.55,19.28C238.45,57.17,230.47,48.5,230.47,38z M262.59,38v-0.11c0-7.24-5.28-13.26-12.68-13.26
	s-12.58,5.91-12.58,13.15v0.11c0,7.24,5.28,13.26,12.68,13.26C257.42,51.15,262.59,45.24,262.59,38z"/>
<path class="st0" d="M275.84,38v-0.11c0-10.59,7.93-19.28,19.22-19.28c6.86,0,11.03,2.4,14.59,5.8l-4.22,4.85
	c-2.99-2.77-6.18-4.63-10.43-4.63c-7.13,0-12.31,5.86-12.31,13.15v0.11c0,7.3,5.17,13.26,12.31,13.26c4.58,0,7.51-1.86,10.7-4.85
	l4.22,4.25c-3.89,4.05-8.14,6.61-15.13,6.61C283.93,57.17,275.84,48.7,275.84,38z"/>
<path class="st0" d="M318.72,19.26h6.56v18.76L343,19.26h8.04l-15.49,16.03l16.2,21.24h-7.93l-12.74-16.77l-5.8,5.96v10.81h-6.56
	V19.26z"/>
<path class="st0" d="M361.07,19.26h16.72c4.25,0,7.62,1.17,9.75,3.3c1.66,1.66,2.5,3.68,2.5,6.18v0.11c0,4.47-2.56,6.86-5.33,8.31
	c4.36,1.5,7.4,4,7.4,9.06v0.11c0,6.65-5.48,10.23-13.8,10.23h-17.26V19.26H361.07z M376.46,34.97c4.22,0,7.03-1.66,7.03-5.06V29.8
	c0-2.94-2.34-4.74-6.56-4.74h-9.42v9.91H376.46z M378.39,50.74c4.47,0,7.19-1.77,7.19-5.12v-0.11c0-3.13-2.5-5.01-7.68-5.01h-10.38
	v10.23H378.39z"/>
<path class="st0" d="M401.45,19.26h27.64v5.86h-21.1v9.69h18.7v5.86h-18.7v10.02h21.35v5.86h-27.91V19.26H401.45z"/>
<path class="st0" d="M448.2,25.33h-11.82v-6.07h30.25v6.07h-11.82v31.2h-6.61V25.33z"/>
<path class="st0" d="M471.12,51.1l3.95-4.68c3.57,3.08,7.13,4.85,11.76,4.85c4.05,0,6.61-1.86,6.61-4.68v-0.11
	c0-2.67-1.5-4.11-8.41-5.69c-7.93-1.91-12.41-4.25-12.41-11.13v-0.11c0-6.4,5.33-10.81,12.74-10.81c5.44,0,9.75,1.66,13.53,4.68
	l-3.51,4.95c-3.35-2.5-6.7-3.84-10.13-3.84c-3.84,0-6.07,1.96-6.07,4.41v0.11c0,2.88,1.71,4.16,8.85,5.86
	c7.87,1.91,11.98,4.74,11.98,10.92v0.11c0,6.97-5.48,11.13-13.31,11.13C480.96,57.08,475.59,55.1,471.12,51.1z"/>
</svg>
